<svg xmlns="http://www.w3.org/2000/svg" viewBox="0 0 64 64">
  <rect width="64" height="64" rx="14" fill="#eaf6e9"/>
  <g fill="none" stroke="#2f7d32" stroke-width="4" stroke-linecap="round" stroke-linejoin="round">
    <path d="M32 13c4.5 0 7 5 4.5 11.5C43 22 48 24.5 48 29s-5 7-11.5 4.5C39 40 36.5 45 32 45s-7-5-4.5-11.5C21 36 16 33.5 16 29s5-7 11.5-4.5C25 18 27.5 13 32 13z"/>
    <path d="M21 18.5c3.2-3.2 8.5-1.4 11 4.9 2.5-6.3 7.8-8.1 11-4.9s1.4 8.5-4.9 11c6.3 2.5 8.1 7.8 4.9 11s-8.5 1.4-11-4.9c-2.5 6.3-7.8 8.1-11 4.9s-1.4-8.5 4.9-11c-6.3-2.5-8.1-7.8-4.9-11z"/>
    <circle cx="32" cy="29" r="4"/>
  </g>
</svg>
